{"title":"Zootopia 2016 TS English Movies xviD-TvMovize.mp4","uid":13897682,"size":778158872,"categoryP":"video","categoryS":"movies","magnet":"?xt=urn:btih:1b32eede2fe2bffcf38190b36c56a05ff54e07e4&amp;dn=Zootopia+2016+TS+English+Movies+xviD-TvMovize.mp4&amp;tr=udp%3A%2F%2Ftracker.leechers-paradise.org%3A6969&amp;tr=udp%3A%2F%2Fzer0day.ch%3A1337&amp;tr=udp%3A%2F%2Fopen.demonii.com%3A1337&amp;tr=udp%3A%2F%2Ftracker.coppersurfer.tk%3A6969&amp;tr=udp%3A%2F%2Fexodus.desync.com%3A6969","seeders":20,"leechers":4,"uploader":"TvMovize","files":1,"time":1458253918,"description":"Zootopia 2016 TS English Movies xviD-TvMovize.mp4\r\n\r\n++ ScreenShots ++\r\n \nhttp://www.image2be.com/movie/Zootopia/1.html  \nhttp://www.image2be.com/movie/Zootopia/2.html  \nhttp://www.image2be.com/movie/Zootopia/3.html  \nhttp://www.image2be.com/movie/Zootopia/4.html  \nhttp://www.image2be.com/movie/Zootopia/5.html \r\n\r\n++ Info ++\r\n\r\nFormat : MPEG-4 \r\nFormat profile : Base Media \r\nCodec ID : isom (isom/iso2/avc1/mp41) \r\nFile size : 742 MiB \r\nDuration : 1h 36mn \r\nOverall bit rate : 1 071 Kbps \r\nWriting application : Lavf57.20.100 \r\n\r\nVideo \r\nID : 1 \r\nFormat : AVC \r\nFormat/Info : Advanced Video Codec \r\nFormat profile :    \r\nFormat settings, CABAC : No \r\nFormat settings, ReFrames : 2 frames \r\nFormat settings, GOP : M=1, N=60 \r\nCodec ID : avc1 \r\nCodec ID/Info : Advanced Video Coding \r\nDuration : 1h 36mn \r\nBit rate : 883 Kbps \r\nWidth : 854 pixels \r\nHeight : 480 pixels \r\nDisplay aspect ratio : 16:9 \r\nFrame rate mode : Constant \r\nFrame rate : 29.970 (29970/1000) fps \r\nColor space : YUV \r\nChroma subsampling : 4:2:0 \r\nBit depth : 8 bits \r\nScan type : Progressive \r\nBits/(Pixel*Frame) : 0.072 \r\nStream size : 612 MiB (82%) \r\n\r\nAudio \r\nID : 2 \r\nFormat : AAC \r\nFormat/Info : Advanced Audio Codec \r\nFormat profile : LC \r\nCodec ID : 40 \r\nDuration : 1h 36mn \r\nBit rate mode : Constant \r\nBit rate : 181 Kbps \r\nChannel(s) : 2 channels \r\nChannel positions : Front: L R \r\nSampling rate : 48.0 KHz \r\nFrame rate : 46.875 fps (1024 spf) \r\nCompression mode : Lossy \r\nStream size : 126 MiB (17%) \r\nDefault : Yes \r\nAlternate group : 1","torrent":{"xt":"urn:btih:1b32eede2fe2bffcf38190b36c56a05ff54e07e4","amp;dn":"Zootopia+2016+TS+English+Movies+xviD-TvMovize.mp4","amp;tr":["udp%3A%2F%2Ftracker.leechers-paradise.org%3A6969","udp%3A%2F%2Fzer0day.ch%3A1337","udp%3A%2F%2Fopen.demonii.com%3A1337","udp%3A%2F%2Ftracker.coppersurfer.tk%3A6969","udp%3A%2F%2Fexodus.desync.com%3A6969"],"infoHash":"1b32eede2fe2bffcf38190b36c56a05ff54e07e4","infoHashBuffer":{"type":"Buffer","data":[27,50,238,222,47,226,191,252,243,129,144,179,108,86,160,95,245,78,7,228]},"announce":[],"urlList":[]}}